<?xml version="1.0" encoding="utf-8"?>
<!-- Generator: Adobe Illustrator 28.3.0, SVG Export Plug-In . SVG Version: 6.00 Build 0)  -->
<svg id="branding" version="1.1" xmlns="http://www.w3.org/2000/svg" xmlns:xlink="http://www.w3.org/1999/xlink" x="0px" y="0px"
	 viewBox="0 -192 768 384" style="enable-background:new 0 -192 768 192;" xml:space="preserve">
	<style type="text/css">
		:root {
			--branding-delay: 1s;
		}

		.branding-st2{fill:#2272AF;}

		#branding-container {
			animation: container-fade 4s ease-in-out forwards;
			animation-delay: var(--branding-delay);
		}

		#branding {
			width: 50rem;
			animation: sizing 4s ease-in-out forwards;
			animation-delay: var(--branding-delay);
		}

		#brandingSVGID_1_, #SVGID_00000147213311073233406890000008687734854817778870_ {
			animation: clip 2s ease-in-out forwards;
			animation-delay: var(--branding-delay);
		}

		#NEHEMIAH {
			transform: translate(5%, -40%);
			animation: name-collapse 2s ease-in-out forwards;
			animation-delay: var(--branding-delay);
		}

		#FullName {
			animation: center 4s ease-in-out forwards;
			animation-delay: var(--branding-delay);
		}

		@keyframes container-fade {
			0% {
				opacity: 1;
			}

			60% {
				opacity: 1;
			}

			80% {
				opacity: 0;
			}

			100% {
				opacity: 0;
			}
		}

		@keyframes sizing {
			0% {
				width: 50rem;
				transform: translate(0, 0);
			}

			50% {
				width: 50rem;
				transform: translate(0, 0);
			}

			75% {
				width: 12rem;
				transform: translate(calc(-50vw + 6rem + (-.375 * 12rem) + 12px), calc(-50vh + 4rem + (-.375 * 4rem) + 8px));
			}

			100% {
				width: 12rem;
				transform: translate(calc(-50vw + 6rem + (-.375 * 12rem) + 12px), calc(-50vh + 4rem + (-.375 * 4rem) + 8px));
			}
		}

		@keyframes center {
			0% {
				transform: translate(0, 0);
			}

			25% {
				transform: translate(37.5%, 0);
			}

			50% {
				transform: translate(37.5%, -37.5%);
			}

			100% {
				transform: translate(37.5%, -37.5%);
			}
		}

		@keyframes clip {
			0% {
				transform: scale(1, 1);
			}

			50% {
				transform: scale(0, 1);
			}

			100% {
				transform: scale(0, 1);
			}
		}

		@keyframes name-collapse {
			0% { 
				transform: translate(5%, -40%)
			}

			50% { 
				transform: translate(5%, -40%)
			}

			100% { 
				transform: translate(0, 0)
			}
		}
	</style>
<g id="FullName">
	<g id="LANGNESS">
		<g id="ANGNESSS-CLIPPED">
			<defs>
				<rect id="brandingSVGID_1_" style="" width="768" height="384"/>
			</defs>
			<clipPath id="SVGID_00000150075735443541078580000012726306125795894400_">
				<use xlink:href="#brandingSVGID_1_"  style="overflow:visible;"/>
			</clipPath>
			<g id="ANGNESS" style="clip-path:url(#SVGID_00000150075735443541078580000012726306125795894400_);">
				<path class="branding-st2" d="M140.7,144.3l-15,25.8c-0.4,0.7-1.2,1.2-2,1.2H109c-1.8,0-2.9-2-2-3.5l48.9-82.9c1.6-2.8,4.6-4.5,7.9-4.5
					h14.8c1.2,0,2.2,0.9,2.3,2.1l7.2,78.9c0.5,5.4-3.7,10-9.1,10h-0.4c-1.2,0-2.2-0.9-2.3-2.1l-2.1-23.6c-0.1-1.7-1.5-2.9-3.2-2.9
					h-27.5C142.3,142.7,141.2,143.3,140.7,144.3z M170.2,133.5c1.9,0,3.4-1.6,3.2-3.5l-2.1-22.7c-0.1-1.3-0.2-2.9-0.3-4.6
					c-0.2-3.2-4.5-4.2-6-1.3c-1,1.9-2.1,3.8-3.2,5.8l-12.6,21.5c-1.3,2.1,0.3,4.9,2.8,4.9H170.2z"/>
				<path class="branding-st2" d="M195.1,168.4l20.2-81.1c1-4.1,4.7-6.9,8.9-6.9h12.1c1,0,1.8,0.6,2.2,1.5l17.1,44.5c2.2,5.7,4,11.1,5.6,16.3
					c0.9,3.2,5.5,3,6.2-0.2c1.6-7.6,3.7-16.9,5.4-24l9-36.3c0.3-1,1.2-1.8,2.3-1.8h6.2c1.5,0,2.6,1.4,2.3,2.9l-20.2,81.1
					c-1,4.1-4.7,6.9-8.9,6.9h-3.1c-1,0-1.9-0.6-2.2-1.5l-16.8-44.6c-1.8-4.9-4.2-12.1-6.2-18.2c-1-3.1-5.5-2.9-6.2,0.3
					c-1.6,7.5-3.5,15.5-5.9,25.2l-9.2,37.1c-0.3,1-1.2,1.8-2.3,1.8h-14.2C195.8,171.3,194.7,169.9,195.1,168.4z"/>
				<path class="branding-st2" d="M362.7,162.2c-0.8,3.2-3.2,5.7-6.4,6.6c-6.1,1.7-14.8,3.4-24,3.4c-13.8,0-28.2-3.5-35-12
					c-5.9-7.6-9.8-19.7-6.2-33.9c6.9-27.1,36.5-47,67-47c8.5,0,15.2,1.5,19.2,3.1c1.3,0.5,1.9,2.1,1.2,3.3l-3,5.4
					c-0.6,1.1-1.9,1.5-3,1c-4.1-1.7-9.3-3-17.2-3c-22.1,0-40,13.8-45.7,36.6c-5.8,23.1,4.8,36.7,25.9,36.7c6.4,0,11.3-0.7,14.5-1.8
					c1.1-0.3,1.9-1.2,2.2-2.3l5.4-22.5c0.5-2-1-4-3.1-4h-11.3c-1.6,0-2.7-1.5-2.3-3l1-3.8c0.3-1,1.2-1.7,2.3-1.7h25.2
					c1.5,0,2.6,1.4,2.3,2.9L362.7,162.2z"/>
				<path class="branding-st2" d="M371.1,168.4l20.2-81.1c1-4.1,4.7-6.9,8.9-6.9h12.1c1,0,1.8,0.6,2.2,1.5l17.1,44.5c2.2,5.7,4,11.1,5.6,16.3
					c0.9,3.2,5.5,3,6.2-0.2c1.6-7.6,3.7-16.9,5.4-24l9-36.3c0.3-1,1.2-1.8,2.3-1.8h6.2c1.5,0,2.6,1.4,2.3,2.9l-20.2,81.1
					c-1,4.1-4.7,6.9-8.9,6.9h-3.1c-1,0-1.9-0.6-2.2-1.5l-16.8-44.6c-1.8-4.9-4.2-12.1-6.2-18.2c-1-3.1-5.5-2.9-6.2,0.3
					c-1.6,7.5-3.5,15.5-5.9,25.2l-9.3,37.1c-0.3,1-1.2,1.8-2.3,1.8h-14.2C371.9,171.3,370.8,169.9,371.1,168.4z"/>
				<path class="branding-st2" d="M523.1,128.6h-31c-1.5,0-2.8,1-3.1,2.4l-6.6,26.4c-0.5,2,1,4,3.1,4h32.3c1.5,0,2.6,1.4,2.3,2.9v0
					c-1,4.1-4.7,6.9-8.9,6.9h-49c-1.5,0-2.6-1.4-2.3-2.9l20.2-81.1c1-4.1,4.7-6.9,8.9-6.9h47c1.5,0,2.6,1.4,2.3,2.9l-1.3,5.2
					c-0.3,1-1.2,1.8-2.3,1.8h-33c-1.5,0-2.8,1-3.1,2.4l-5.6,22.3c-0.5,2,1,4,3.1,4h28.2c1.5,0,2.6,1.4,2.3,2.9l-1.3,5
					C525.2,127.9,524.2,128.6,523.1,128.6z"/>
				<path class="branding-st2" d="M534.4,159.2c0.6-1.2,2.1-1.6,3.2-0.9c4.4,2.6,10.6,4.6,17.6,4.6c12,0,16.6-6.3,18.9-15.5
					c2.1-8.5,0.5-15.4-10.6-20.1c-13.5-5.3-22.8-11-19.6-23.8c3.5-14.2,21.9-24.7,39.6-24.7c7.6,0,13.2,1.4,16.8,3.2
					c1.2,0.6,1.6,2.1,1,3.3l-3.2,5.5c-0.6,1.1-2,1.5-3.1,0.9c-3-1.5-7.7-3.2-14.3-3.2c-12.4,0-19,7.4-20.5,13.6
					c-2.1,8.5,2.4,12.7,13.7,17.5c13.9,5.9,19.9,13.4,16.6,26.7c-3.5,14-16.9,26.2-38.4,26.2c-7.6,0-15.3-1.9-19.9-4.5
					c-1.1-0.6-1.5-2-0.9-3.2L534.4,159.2z"/>
				<path class="branding-st2" d="M600.9,159.2c0.6-1.2,2.1-1.6,3.2-0.9c4.4,2.6,10.6,4.6,17.6,4.6c12,0,16.6-6.3,18.9-15.5
					c2.1-8.5,0.5-15.4-10.6-20.1c-13.5-5.3-22.8-11-19.6-23.8c3.5-14.2,21.9-24.7,39.6-24.7c7.6,0,13.2,1.4,16.8,3.2
					c1.2,0.6,1.6,2.1,1,3.3l-3.2,5.5c-0.6,1.1-2,1.5-3.1,0.9c-3-1.5-7.7-3.2-14.3-3.2c-12.4,0-19,7.4-20.5,13.6
					c-2.1,8.5,2.4,12.7,13.7,17.5c13.9,5.9,19.9,13.4,16.6,26.7c-3.5,14-16.9,26.2-38.4,26.2c-7.6,0-15.3-1.9-19.9-4.5
					c-1.1-0.6-1.5-2-0.9-3.2L600.9,159.2z"/>
			</g>
		</g>
		<path id="L" class="branding-st2" d="M97.6,165L97.6,165c-0.9,3.4-4.4,6.2-7.8,6.2h-66c-6.2,0-9.9-5.2-8.3-11.6L48.8,27
			c0.9-3.4,4.4-6.2,7.8-6.2h13.3c3.4,0,5.5,2.8,4.7,6.2L44.4,147.2c-1.6,6.4,2.1,11.6,8.3,11.6h40.3C96.4,158.8,98.4,161.6,97.6,165
			z"/>
	</g>
	<g id="NEHEMIAH">
		<g id="EHEMIAH-CLIPPED">
			<defs>
				<rect id="SVGID_00000147213311073233406890000008687734854817778870_" width="768" height="384"/>
			</defs>
			<clipPath id="SVGID_00000158714891833796426000000007114936522800147619_">
				<use xlink:href="#SVGID_00000147213311073233406890000008687734854817778870_"  style="overflow:visible;"/>
			</clipPath>
			<g id="EHEMIAH" style="clip-path:url(#SVGID_00000158714891833796426000000007114936522800147619_);">
				<path class="branding-st2" d="M224.4,106.7h-31.7c-1,0-1.9,0.7-2.2,1.7l-7.1,28.3c-0.4,1.4,0.7,2.8,2.2,2.8H219c1.6,0,2.7,1.5,2.3,3
					l-1.7,6.9h-56.1c-1.6,0-2.7-1.5-2.3-3l20.2-80.9c1-4.1,4.8-7.1,9-7.1h46.8c1.6,0,2.7,1.5,2.3,3l-1.3,5c-0.3,1.1-1.2,1.8-2.3,1.8
					h-33.7c-1,0-1.9,0.7-2.2,1.7l-6,24.2c-0.4,1.4,0.7,2.8,2.2,2.8h29.4c1.6,0,2.7,1.5,2.3,3l-1.2,4.9
					C226.5,106,225.5,106.7,224.4,106.7z"/>
				<path class="branding-st2" d="M268.6,61.4l-8,32.3c-0.4,1.4,0.7,2.8,2.2,2.8h39.4c1,0,1.9-0.7,2.2-1.7l8.6-34.5c0.3-1.1,1.2-1.8,2.3-1.8
					h10l-21,84.1c-1,4-4.6,6.9-8.8,6.9h-1.7c-1.6,0-2.7-1.5-2.3-3l9.2-36.9c0.4-1.4-0.7-2.8-2.2-2.8h-39.4c-1,0-1.9,0.7-2.2,1.7
					l-9.8,39.1c-0.3,1.1-1.2,1.8-2.3,1.8H230c-1.6,0-2.7-1.5-2.3-3l20.2-81.1c1-4,4.6-6.9,8.8-6.9h9.6
					C267.8,58.4,269,59.9,268.6,61.4z"/>
				<path class="branding-st2" d="M378.8,106.7h-31.7c-1,0-1.9,0.7-2.2,1.7l-7.1,28.3c-0.4,1.4,0.7,2.8,2.2,2.8h33.4c1.6,0,2.7,1.5,2.3,3v0
					c-1,4-4.6,6.9-8.8,6.9h-49c-1.6,0-2.7-1.5-2.3-3l20.2-81.1c1-4,4.6-6.9,8.8-6.9h47c1.6,0,2.7,1.5,2.3,3l-1.3,5
					c-0.3,1.1-1.2,1.8-2.3,1.8h-33.7c-1,0-1.9,0.7-2.2,1.7l-6,24.2c-0.4,1.4,0.7,2.8,2.2,2.8H380c1.6,0,2.7,1.5,2.3,3l-1.2,4.9
					C380.9,106,379.9,106.7,378.8,106.7z"/>
				<path class="branding-st2" d="M476,109.4c1.3-6.5,3.3-16.6,5.1-24.9c0.5-2.5-2.9-3.8-4.2-1.6c-3.9,6.9-8.2,14.1-13,21.7l-24.4,39.8
					c-1.6,2.7-4.6,4.3-7.7,4.3h-1.6c-1.3,0-2.3-1-2.4-2.2l-3.7-41.1c-0.5-6.1-1-14.4-1.4-21.4c-0.1-2.5-3.7-3-4.4-0.5
					c-2.5,8.6-5.3,18-8,26.8l-11.6,37.3c-0.3,1-1.2,1.7-2.3,1.7h-14.1c-1.6,0-2.8-1.6-2.3-3.2l26-81.5c1.2-3.7,4.7-6.3,8.6-6.3h14.2
					c1.2,0,2.3,0.9,2.4,2.2l4.3,41.8c0.6,6.5,1.1,15.8,1.5,22.4c0.1,2.3,3.2,2.9,4.2,0.9c3.8-7.1,8.3-14.8,13.4-23.3l24.5-39.7
					c1.6-2.7,4.6-4.3,7.7-4.3h7c1.5,0,2.7,1.4,2.4,2.9L481.2,142c-0.8,4.3-4.5,7.4-8.9,7.4h-1c-1.5,0-2.7-1.4-2.4-2.9L476,109.4z"/>
				<path class="branding-st2" d="M531.6,61.4l-20.2,81.1c-1,4-4.6,6.9-8.8,6.9H493c-1.6,0-2.7-1.5-2.3-3l20.2-81.1c1-4,4.6-6.9,8.8-6.9h9.6
					C530.8,58.4,532,59.9,531.6,61.4z"/>
				<path class="branding-st2" d="M551.4,121.9l-15.2,26.3c-0.4,0.7-1.2,1.2-2.1,1.2h-14.5c-1.9,0-3-2-2.1-3.6l48.8-82.9
					c1.6-2.8,4.6-4.5,7.8-4.5h14.8c1.2,0,2.3,1,2.4,2.2l7.3,78.9c0.5,5.3-3.7,9.9-9,9.9h-0.4c-1.3,0-2.3-1-2.4-2.2l-2.2-24.4
					c-0.1-1.2-1.1-2-2.2-2h-28.9C552.5,120.8,551.8,121.2,551.4,121.9z M581.7,111.6c1.3,0,2.4-1.1,2.2-2.5l-2.2-23.7
					c-0.2-1.6-0.3-3.6-0.4-5.7c-0.2-2.9-4.1-3.8-5.5-1.2c-1.2,2.2-2.4,4.5-3.7,6.7l-13.5,22.9c-0.9,1.5,0.2,3.4,1.9,3.4H581.7z"/>
				<path class="branding-st2" d="M646.5,61.4l-8,32.3c-0.4,1.4,0.7,2.8,2.2,2.8H680c1,0,1.9-0.7,2.2-1.7l7.4-29.5c1-4,4.6-6.9,8.8-6.9h1.7
					c1.6,0,2.7,1.5,2.3,3l-20.2,81.1c-1,4-4.6,6.9-8.8,6.9h-1.7c-1.6,0-2.7-1.5-2.3-3l9.2-36.9c0.4-1.4-0.7-2.8-2.2-2.8h-39.4
					c-1,0-1.9,0.7-2.2,1.7l-8.5,34.1c-1,4-4.6,6.9-8.8,6.9h-9.6c-1.6,0-2.7-1.5-2.3-3l20.2-81.1c1-4,4.6-6.9,8.8-6.9h9.6
					C645.7,58.4,646.9,59.9,646.5,61.4z"/>
			</g>
		</g>
		<path id="N" class="branding-st2" d="M153.6,136.9l-0.7,2.8c-0.6,2.4-2,4.7-3.9,6.4c-0.2,0.2-0.4,0.3-0.6,0.5c-1.2,1-2.4,1.7-3.8,2.3
			c0,0,0,0-0.1,0c-3,1.1-5.9,0.3-7.3-1.8l-33.7-51.9c-0.8-1.2-3-0.4-3.4,1.2l-12.4,49.4c-0.6,2.2-2.8,4-5,4H57.2c-2.2,0-3.5-1.8-3-4
			l22.9-91.2l0.8-3.2c0.6-2.4,1.9-4.5,3.7-6.2c0.2-0.2,0.4-0.3,0.6-0.5c1.2-1,2.5-1.8,3.9-2.4c0,0,0,0,0.1,0
			c2.9-1.2,5.7-0.4,7.1,1.7l42,64.7c0.8,1.2,3,0.4,3.4-1.2l15.6-62.1c0.6-2.2,2.8-4,5-4h14.4c2.2,0,3.5,1.8,3,4L153.6,136.9z"/>
	</g>
</g>
</svg>
