<?xml version="1.0" encoding="utf-8"?>
<!-- Generator: Adobe Illustrator 28.3.0, SVG Export Plug-In . SVG Version: 6.00 Build 0)  -->
<svg version="1.1" xmlns="http://www.w3.org/2000/svg" xmlns:xlink="http://www.w3.org/1999/xlink" x="0px" y="0px"
	 viewBox="0 0 384 192" style="enable-background:new 0 0 384 192;" xml:space="preserve">
<style type="text/css">
	.fs-st0{fill:#2272AF;}
	.fs-st1{fill:none;stroke:#2272AF;stroke-width:3;stroke-linecap:round;stroke-miterlimit:10;}
</style>
<g>
	<g>
		<g>
			<path class="fs-st0" d="M142.9,11H12.1c-5,0-9.1,4.1-9.1,9.1V31h149V20.1C152,15.1,147.9,11,142.9,11z M106,26c-2.8,0-5-2.2-5-5
				s2.2-5,5-5s5,2.2,5,5S108.8,26,106,26z M124,26c-2.8,0-5-2.2-5-5s2.2-5,5-5s5,2.2,5,5S126.8,26,124,26z M142,26c-2.8,0-5-2.2-5-5
				s2.2-5,5-5s5,2.2,5,5S144.8,26,142,26z"/>
		</g>
		<g>
			<path class="fs-st0" d="M3,35v72.9c0,5,4.1,9.1,9.1,9.1h130.9c5,0,9.1-4.1,9.1-9.1V35H3z M57.7,90.2L57.7,90.2
				c-1.2,1.2-3.1,1.3-4.4,0.2L38.7,78.2c-1.5-1.3-1.5-3.6,0-4.9L53.3,61c1.3-1.1,3.2-1,4.3,0.2l0,0c1.3,1.3,1.2,3.5-0.2,4.7
				l-8.8,7.2c-1.5,1.3-1.6,3.6,0,4.9l8.9,7.4C58.9,86.7,59,88.9,57.7,90.2z M88.6,54.7L70.9,96C70.4,97.2,69.2,98,68,98
				c-2.3,0-3.8-2.3-2.9-4.5l17.7-41.3c0.5-1.2,1.7-1.9,2.9-1.9h0C88,50.3,89.5,52.6,88.6,54.7z M116.3,78.2l-14.6,12.3
				c-1.3,1.1-3.2,1-4.3-0.2l0,0c-1.3-1.3-1.2-3.5,0.2-4.7l8.8-7.3c1.5-1.3,1.5-3.6,0-4.9L97.6,66c-1.4-1.2-1.5-3.4-0.2-4.7l0-0.1
				c1.2-1.2,3-1.3,4.3-0.2l14.6,12.3C117.8,74.5,117.8,76.9,116.3,78.2z"/>
		</g>
	</g>
</g>
<g>
	<g>
		<path class="fs-st0" d="M216,129.7c-0.7-0.6-1.5-1-2.5-1.3s-2.2-0.5-3.5-0.5h-3.8v14h4c1.2,0,2.4-0.2,3.3-0.5c1-0.3,1.8-0.8,2.4-1.5
			c0.7-0.6,1.2-1.4,1.5-2.3c0.3-0.9,0.5-1.9,0.5-3c0-1-0.2-1.9-0.5-2.8S216.7,130.3,216,129.7z"/>
		<polygon class="fs-st0" points="173.2,146.7 183.2,146.7 178.2,128.9 		"/>
		<path class="fs-st0" d="M268.8,125.2c-1.9-20.3-19-36.2-39.8-36.2c-13,0-24.5,6.2-31.8,15.7c-3.7-1.8-7.9-2.7-12.2-2.7
			c-15.7,0-28.5,12.4-29,28h-1c-7.2,0-13.7,2.9-18.4,7.6c-4.7,4.7-7.6,11.2-7.6,18.4c0,14.4,11.6,26,26,26h89
			c3.7,0,7.3-0.8,10.5-2.2c0,0,0,0,0,0c3.4,1.4,7.1,2.2,11,2.2c15.7,0,28.5-12.8,28.5-28.5C294,138.9,283,126.8,268.8,125.2z
			 M190.3,160.2h-0.8c-1.5,0-2.9-1-3.3-2.5l-1.4-5.1h-13.4l-1.5,5.1c-0.4,1.5-1.8,2.5-3.3,2.5c-2.3,0-3.9-2.2-3.3-4.4l9.3-31.5
			c0.4-1.5,1.8-2.4,3.3-2.4h5c1.5,0,2.8,1,3.3,2.4l9.3,31.5C194.2,158,192.6,160.2,190.3,160.2z M224.5,139.6
			c-0.7,1.7-1.7,3.1-3,4.4s-2.9,2.2-4.9,2.9s-4.2,1-6.8,1h-3.7v8.9c0,1.9-1.5,3.4-3.4,3.4h-0.4c-1.9,0-3.4-1.5-3.4-3.4v-31.5
			c0-1.9,1.5-3.4,3.4-3.4h7.8c2.5,0,4.7,0.3,6.6,0.8s3.5,1.3,4.8,2.4c1.3,1,2.3,2.3,3,3.8s1,3.2,1,5.2
			C225.5,136.1,225.2,137.9,224.5,139.6z M253.6,154.2c1.6,0,2.9,1.3,2.9,2.9v0.1c0,1.6-1.3,2.9-2.9,2.9h-18.3
			c-1.6,0-2.9-1.3-2.9-2.9v-0.1c0-1.6,1.3-2.9,2.9-2.9h5.5v-26.5h-5.5c-1.6,0-2.9-1.3-2.9-2.9s1.3-2.9,2.9-2.9h18.3
			c1.6,0,2.9,1.3,2.9,2.9s-1.3,2.9-2.9,2.9h-5.5v26.5H253.6z"/>
	</g>
	<g>
		<g>
			<path class="fs-st1" d="M29,129c-0.1,2.4-0.6,18.7,20.6,30.2c14.6,7.9,34.8,11,54.5,8.9"/>
			<g>
				<polygon class="fs-st0" points="102.8,178.7 119,165.4 99.4,158.1 				"/>
			</g>
		</g>
	</g>
	<g>
		<g>
			<path class="fs-st1" d="M222,79c1-20.8,10.3-38.6,23.6-45.2c4.8-2.4,9.5-2.9,13.6-2.6"/>
			<g>
				<polygon class="fs-st0" points="253.1,40.9 273.5,36.1 259.1,20.9 				"/>
			</g>
		</g>
	</g>
</g>
<g>
	<g>
		<g>
			<g>
				<path class="fs-st0" d="M377.5,27.6c-3.1,2.1-8.9,3.9-16.3,5.2c-3.2,0.6-6.7,1-10.5,1.4c-6.1,0.6-12.7,0.9-19.8,0.9
					c-7,0-13.7-0.3-19.8-0.9c-3.8-0.4-7.3-0.8-10.5-1.4c-7.4-1.3-13.2-3.1-16.3-5.2v3.8l0.1,4.4l-0.1,6.3c0,0,0,0.1,0,0.2
					c0,0.2,0.2,0.4,0.4,0.6c0.7,0.8,3.3,3,12.3,5c4.2,0.9,8.9,1.6,14.2,2.2c6.1,0.6,12.8,0.9,19.7,0.9s13.6-0.3,19.7-0.9
					c5.2-0.5,10-1.2,14.2-2.2c9-2,11.6-4.1,12.3-5c0.2-0.2,0.3-0.4,0.4-0.6c0-0.1,0-0.2,0-0.2l-0.1-6.3L377.5,27.6z"/>
			</g>
			<g>
				<path class="fs-st0" d="M377.5,46.8c-3.1,2.1-8.9,3.9-16.3,5.2c-3.2,0.6-6.7,1-10.5,1.4c-6.1,0.6-12.7,0.9-19.8,0.9
					c-7,0-13.7-0.3-19.8-0.9c-3.8-0.4-7.3-0.8-10.5-1.4c-7.4-1.3-13.2-3.1-16.3-5.2v3.8l0.1,4.4l-0.1,6.3c0,0,0,0.1,0,0.2
					c0,0.2,0.2,0.4,0.4,0.6c0.7,0.8,3.3,3,12.3,5c4.2,0.9,8.9,1.6,14.2,2.2c6.1,0.6,12.8,0.9,19.7,0.9s13.6-0.3,19.7-0.9
					c5.2-0.5,10-1.2,14.2-2.2c9-2,11.6-4.1,12.3-5c0.2-0.2,0.3-0.4,0.4-0.6c0-0.1,0-0.2,0-0.2l-0.1-6.3L377.5,46.8z"/>
			</g>
			<g>
				<path class="fs-st0" d="M377.5,66c-3.1,2.1-8.9,3.9-16.3,5.2c-3.2,0.6-6.7,1-10.5,1.4c-6.1,0.6-12.7,0.9-19.8,0.9
					c-7,0-13.7-0.3-19.8-0.9c-3.8-0.4-7.3-0.8-10.5-1.4c-7.4-1.3-13.2-3.1-16.3-5.2v3.8l0.1,4.4l-0.1,6.3c0,0,0,0.1,0,0.2
					c0,0.2,0.2,0.4,0.4,0.6c0.7,0.8,3.3,3,12.3,5c4.2,0.9,8.9,1.6,14.2,2.2c6.1,0.6,12.8,0.9,19.7,0.9s13.6-0.3,19.7-0.9
					c5.2-0.5,10-1.2,14.2-2.2c9-2,11.6-4.1,12.3-5c0.2-0.2,0.3-0.4,0.4-0.6c0-0.1,0-0.2,0-0.2l-0.1-6.3L377.5,66z"/>
			</g>
			<g>
				<path class="fs-st0" d="M377.5,85.2c-3.1,2.1-8.9,3.9-16.3,5.2c-3.2,0.6-6.7,1-10.5,1.4c-6.1,0.6-12.7,0.9-19.8,0.9
					c-7,0-13.7-0.3-19.8-0.9c-3.8-0.4-7.3-0.8-10.5-1.4c-7.4-1.3-13.2-3.1-16.3-5.2V89l0.1,4.4l-0.1,6.3c0,0,0,0.1,0,0.2
					c0,0.2,0.2,0.4,0.4,0.6c0.7,0.8,3.3,3,12.3,5c4.2,0.9,8.9,1.6,14.2,2.2c6.1,0.6,12.8,0.9,19.7,0.9s13.6-0.3,19.7-0.9
					c5.2-0.5,10-1.2,14.2-2.2c9-2,11.6-4.1,12.3-5c0.2-0.2,0.3-0.4,0.4-0.6c0-0.1,0-0.2,0-0.2l-0.1-6.3L377.5,85.2z"/>
			</g>
			<g>
				<path class="fs-st0" d="M377.5,104.4c-3.1,2.1-8.9,3.9-16.3,5.2c-3.2,0.6-6.7,1-10.5,1.4c-6.1,0.6-12.7,0.9-19.8,0.9
					c-7,0-13.7-0.3-19.8-0.9c-3.8-0.4-7.3-0.8-10.5-1.4c-7.4-1.3-13.2-3.1-16.3-5.2v3.8l0.1,4.4l-0.1,6.3c0,0,0,0.1,0,0.2
					c0,0.2,0.2,0.4,0.4,0.6c0.7,0.8,3.3,3,12.3,5c4.2,0.9,8.9,1.6,14.2,2.2c6.1,0.6,12.8,0.9,19.7,0.9s13.6-0.3,19.7-0.9
					c5.2-0.5,10-1.2,14.2-2.2c9-2,11.6-4.1,12.3-5c0.2-0.2,0.3-0.4,0.4-0.6c0-0.1,0-0.2,0-0.2l-0.1-6.3L377.5,104.4z"/>
			</g>
		</g>
		<path class="fs-st0" d="M284.9,23.3c0.7,0.8,3.3,3,12.3,5c4.2,0.9,8.9,1.6,14.2,2.2c6.1,0.6,12.8,0.9,19.7,0.9s13.6-0.3,19.7-0.9
			c5.2-0.5,10-1.2,14.2-2.2c9-2,11.6-4.1,12.3-5c0.2-0.2,0.3-0.4,0.4-0.6c0-0.1,0-0.2,0-0.2c0-0.8-2.3-3.4-12.7-5.8
			c-9-2-21-3.1-33.8-3.1s-24.8,1.1-33.8,3.1c-10.4,2.3-12.7,4.9-12.7,5.8c0,0,0,0.1,0,0.2C284.6,22.8,284.7,23,284.9,23.3z"/>
	</g>
</g>
</svg>
